<svg version="1.0" 
    xmlns="http://www.w3.org/2000/svg" width="256" height="256" viewBox="0 0 192 192">
    <path d="M0 96v96h192V0H0v96zm102.3-15.8c1.2-.1 1.7.7 1.7 2.9 0 3.6-.6 3.6-3.2.4-1.1-1.4-2.6-2.5-3.3-2.5-2.2 0-3.7 3.9-3 7.7.7 3.9 2.9 5.2 5.7 3.4 2.7-1.7 3.7-.5 1.2 1.4-4.7 3.8-14.3-1.7-12.9-7.4 1.2-4.9 5-7.5 9.5-6.4 1.4.3 3.3.5 4.3.5zM52 110c0 2.2-1.5 2.7-2.3.7-.3-.6-.6.5-.6 2.5-.1 3 .2 3.6 1.5 3.1 1.2-.4 1.5-.1 1.2 1.3-.2 1.3-1.2 1.9-2.8 1.9-2.2 0-2.5-.5-2.8-4.4-.4-5.7.2-7.1 3.3-7.1 1.8 0 2.5.5 2.5 2zm7-1c0 .5-.7 1-1.5 1-1.8 0-2 2.6-.2 3.3.9.4.9.8.1 1.4-.7.4-1.3 1.7-1.5 2.8-.3 1.1-.9 2-1.4 2-1.1 0-1.9-7.9-1.1-10.1.6-1.6 5.6-1.9 5.6-.4zm7-.1c0 .5-1 1.1-2.2 1.4-1.9.5-2 .8-.7 2.3 1.1 1.3 1.1 1.8.2 2.1-2.1.7-1.5 2.3.8 2.3 3 0 1.8 2.4-1.4 2.8-2.7.3-2.7.3-2.7-5.7V108h3c1.7 0 3 .4 3 .9zm10.5.1c.3.6-.1 1.3-.9 1.6-1.1.4-1.6 1.9-1.6 5 0 2.4-.4 4.4-1 4.4-.5 0-1-2-1-4.5s-.4-4.5-1-4.5c-.5 0-1-.7-1-1.5 0-1.7 5.5-2.1 6.5-.5zm5.3 4.7c1.3 6.1.8 7.9-1.3 5-1.3-1.8-1.4-1.8-2.3 0-1.9 3.2-2.5.4-1.3-5.2.7-3 1.8-5.5 2.5-5.5.6 0 1.7 2.5 2.4 5.7zm4.2-4.6c0 .8.5.7 1.5-.1 2.1-1.8 2.7-.8 1.6 2.4a6.7 6.7 0 000 5.2c1.1 3.2.5 4.2-1.6 2.4-1-.8-1.5-.9-1.5-.1 0 .6-.4 1.1-.8 1.1-.5 0-.8-2.7-.8-6s.4-6 .8-6c.5 0 .8.5.8 1.1zm14 1c0 1.5-.5 1.9-1.5 1.5-.8-.3-1.5-.1-1.5.4 0 .6.7 1 1.6 1 1.1 0 1.4.8 1.2 3.2-.2 2.8-.7 3.3-2.8 3.3-1.6 0-2.6-.6-2.8-1.9-.3-1.5 0-1.8 1.7-1.3 1.2.3 2.1.2 2.1-.3 0-.4-.9-1-2-1.3-1.3-.3-2-1.4-2-2.9 0-3.1.7-3.8 3.7-3.8 1.7 0 2.3.6 2.3 2.1zm7-1.1c0 .5-.7 1-1.5 1-1.8 0-2 2.6-.2 3.4 1 .5 1 .7 0 1.2-1.8.8-1.6 2.4.2 2.4.8 0 1.5.7 1.5 1.6 0 1.1-.8 1.4-2.7 1.2-2.5-.3-2.8-.7-3.1-4.7-.2-2.4-.1-5 .2-5.7.6-1.6 5.6-1.9 5.6-.4zm6.7 5.2c.2 6.1-.7 7.3-2.5 3.5l-1.1-2.2v2.2c-.1 1.3-.5 2.3-1.1 2.3-.6 0-1-2.7-1-6.1 0-6 0-6 2.8-5.7 2.6.3 2.7.6 2.9 6zm4-3.5l1.1 2.8.1-2.8c.1-2.3.5-2.7 3.1-2.7h3.1l-.3 5.5c-.4 7-2.2 7.6-2.7 1l-.4-5-1.1 4.9c-.7 2.7-1.7 5.1-2.3 5.3-1 .4-3.3-6.7-3.3-10.1 0-2.5 1.5-1.9 2.7 1.1zm14.1-.5c.4 2.1-2.4 2.5-3.1.5-.3-.6-.6.4-.6 2.5-.1 3.2.1 3.5 2 3.1 1.7-.5 2-.2 1.7 1.3-.2 1.3-1.2 1.9-2.8 1.9-2.3 0-2.5-.4-2.8-5.8l-.3-5.8 2.8.3c1.7.2 2.9 1 3.1 2zm13.2-.1c0 2.1-1.6 2.6-2.3.6-.3-.7-.6-.5-.6.5-.1 1 .6 1.8 1.5 1.8 1.1 0 1.4.8 1.2 3.2-.2 2.5-.8 3.4-2.5 3.6-1.4.2-2.3-.2-2.3-.9 0-1-.3-1-1.2-.1-.7.7-2.2 1.2-3.5 1.2-2.1 0-2.3-.4-2.3-5.9v-5.9h6c5.2 0 6 .2 6 1.9z"/>
    <path d="M110 112c0 .5.5 1 1 1 .6 0 1-.5 1-1 0-.6-.4-1-1-1-.5 0-1 .4-1 1zM135 111.4c0 .8.6 1.7 1.3 2 1 .5 1 .7 0 1.2-2.6 1.2-1.2 2.3 2.7 2.1 4.3-.2 5.2-1.1 2-2-1.2-.3-2-1.4-2-2.6 0-1.4-.6-2.1-2-2.1-1.1 0-2 .6-2 1.4z"/>
</svg>