<svg xmlns="http://www.w3.org/2000/svg" width="256" height="256" viewBox="0 0 256 256"><g fill="none" fill-rule="evenodd"><path fill="#009FD9" fill-rule="nonzero" d="M128 62c2.61.146 5.332.83 7.691 2.14l62.1 34.505c4.693 2.606 7.627 5.798 7.7 11.137l.509 38.895-.567 37.192a14.93 14.93 0 0 1-7.72 12.828L135.558 231.4c-2.361 1.307-4.948 2.457-7.558 2.599-2.61-.146-5.332-1.306-7.691-2.617l-62.101-32.8a14.93 14.93 0 0 1-7.7-12.84L50 148.554l.567-37.19a14.93 14.93 0 0 1 7.72-12.828l62.155-34.406c2.361-1.307 4.948-1.987 7.558-2.129z"/><path fill="#0AB9E4" fill-rule="nonzero" d="M205.492 109.782c-.074-5.339-3.008-8.53-7.7-11.137l-62.1-34.504c-2.36-1.311-5.083-1.995-7.692-2.141v172c2.61-.142 5.197-1.292 7.558-2.599l62.155-32.704a14.93 14.93 0 0 0 7.72-12.828l.567-37.192-.508-38.895z"/><path fill="#FEBE14" fill-rule="nonzero" d="M126.45 87.204l-3.934 12.361H109.6c-.892 0-1.6.79-1.6 1.705 0 .559.275 1.059.692 1.356.258.178 10.433 7.74 10.433 7.74s-3.908 12.21-3.984 12.405c-.058.177-.1.373-.1.575 0 .916.725 1.654 1.617 1.654.342 0 .658-.11.925-.296L128 116.988s10.183 7.546 10.417 7.716c.265.186.583.296.924.296.892 0 1.617-.746 1.617-1.654 0-.202-.04-.398-.1-.575-.075-.195-3.982-12.404-3.982-12.404s10.173-7.563 10.432-7.741a1.67 1.67 0 0 0 .692-1.365c0-.907-.692-1.696-1.584-1.696H133.5l-3.95-12.361A1.613 1.613 0 0 0 128 86c-.742 0-1.358.508-1.55 1.204"/><path fill="#FFF" d="M100.547 180.521l-1.821-1.504c.787-1.069 2.28-2.749 5.252-2.749 3.408 0 5.452 2.197 5.452 5.287 0 2.068-1.175 3.514-2.185 4.606l-4.125 4.418h6.757V193H99.349v-1.998l5.945-6.321c.917-.987 1.469-1.962 1.469-3.137 0-1.645-1.081-2.844-2.855-2.844-1.669 0-2.55.834-3.361 1.821zm18.683-4.253c3.818 0 6.944 3.184 6.944 8.507 0 5.311-3.126 8.507-6.944 8.507-3.831 0-6.933-3.196-6.933-8.507 0-5.323 3.102-8.507 6.933-8.507zm0 2.444c-2.35 0-4.266 2.091-4.266 6.063 0 3.971 1.916 6.063 4.266 6.063 2.373 0 4.277-2.092 4.277-6.063 0-3.972-1.904-6.063-4.277-6.063zm15.815-2.42V193h-2.55v-13.007l-4.183 1.797v-2.655l6.733-2.844zm14.44.258v1.997L142.366 193h-2.972l7.026-14.041h-8.237v-2.409h11.304z"/><path fill="#2F3033" d="M165.445 39.838c-1.376 0-2.048-.868-2.047-1.767 0-1.178.865-1.766 1.952-1.92l3.709-.538v.682c-.001 2.696-1.823 3.544-3.614 3.543zm.746-12.295c4.26 0 6.971 2.146 6.971 6.363v8.57h-3.92l.017-1.695c-.784 1.197-2.468 2.114-4.553 2.113-3.359-.001-5.405-2.202-5.404-4.589 0-2.727 2.08-4.245 4.703-4.615 0 0 4.31-.518 4.921-.603 0-1.8-1.654-2.208-3.303-2.208-1.688 0-3.032.598-4.07 1.304l-1.537-2.714c1.611-1.156 3.729-1.926 6.175-1.926zm-91.027 1.98c1.07-1.442 2.665-1.952 4.306-1.952 3.408 0 5.84 2.296 5.84 5.673v9.26h-4.043v-8c0-2.1-1.084-3.256-2.927-3.256-1.735 0-3.176 1.095-3.176 3.287v7.968h-4.042V22h4.042v7.522zm53.514 3.721v9.26h-4.028v-8c0-2.1-1.1-3.256-2.927-3.256-1.735 0-3.175 1.095-3.175 3.287v7.968h-4.043v-7.999c0-2.1-1.084-3.256-2.928-3.256-1.735 0-3.175 1.095-3.175 3.287v7.968h-4.043V27.961h3.935v1.711c1.068-1.545 2.71-2.1 4.414-2.1 2.169 0 3.95.945 4.957 2.49 1.161-1.845 3.129-2.49 5.096-2.49 3.531 0 5.917 2.295 5.917 5.672zm18.104 1.98c0 4.368-3.13 7.654-7.265 7.654-2.075 0-3.516-.81-4.492-1.98v1.605h-3.95V22.015h4.028v7.462c.976-1.14 2.385-1.906 4.399-1.906 4.15 0 7.28 3.287 7.28 7.654zm-11.796 0c0 2.297 1.565 4.008 3.857 4.008 2.385 0 3.872-1.786 3.872-4.007 0-2.221-1.487-4.007-3.872-4.007-2.292 0-3.857 1.71-3.857 4.007zm53.662-4.907l-2.912 2.357c-.913-.946-1.89-1.456-3.206-1.456-2.09 0-3.763 1.59-3.763 4.007 0 2.43 1.656 4.007 3.747 4.007 1.302 0 2.417-.57 3.27-1.471l2.88 2.386c-1.41 1.756-3.516 2.731-6.025 2.731-4.787 0-7.993-3.241-7.993-7.653 0-4.397 3.206-7.654 7.993-7.654 2.509 0 4.63.99 6.01 2.746zm15.524-2.356l-5.437 5.436L205 42.503h-4.919L195.9 35.92l-1.828 1.831v4.753h-4.043V22.015h4.043v11.352l5.235-5.406h4.866zM97.736 40.942c-1.07 1.441-2.665 1.951-4.306 1.951-3.408 0-5.84-2.296-5.84-5.672v-9.26h4.043v8c0 2.1 1.084 3.256 2.927 3.256 1.735 0 3.176-1.096 3.176-3.287v-7.969h4.042v14.542h-4.042v-1.56zm49.579-12.98h2.2v-4.323h4.028v4.322h4.48v3.482h-4.48v6.153c0 1.018.727 1.635 1.523 1.635.839 0 1.93-.511 1.93-.511l1.302 3.115s-1.385 1.027-4.476 1.027c-2.045 0-4.307-1.5-4.307-4.412v-7.007h-2.2v-3.482zm-84.271-.398v9.237a8.866 8.866 0 0 1-1.253 4.536l-.908 1.525-.907-1.525a8.866 8.866 0 0 1-1.253-4.536v-7.28c1.072-1.445 2.673-1.957 4.32-1.957zM52 25.917V22h17.767v3.917H52z"/><path fill="#FFF" d="M70.418 153.112h-3.381V159h-3.208v-16.1h6.566c3.841 0 5.888 2.001 5.888 5.117 0 3.094-2.047 5.095-5.865 5.095zm-.08-7.257h-3.301v4.324h3.3c1.749 0 2.657-.713 2.657-2.162 0-1.437-.908-2.162-2.656-2.162zm14.164 1.702c.644 0 1.15.092 1.564.242l-.448 2.978c-.495-.218-1.208-.356-1.817-.356-1.392 0-2.346.851-2.346 2.507V159h-3.002v-11.144h2.91v1.22c.701-1.047 1.77-1.519 3.14-1.519zm8.243 0c3.473 0 6.037 2.507 6.037 5.865s-2.564 5.865-6.037 5.865c-3.462 0-6.015-2.507-6.015-5.865s2.553-5.865 6.015-5.865zm0 2.795c-1.69 0-2.956 1.265-2.956 3.07 0 1.806 1.265 3.071 2.956 3.071 1.69 0 2.967-1.265 2.967-3.07 0-1.806-1.277-3.071-2.967-3.071zm15.499-2.496v2.668h-3.462V159h-3.001v-8.476h-2.082v-2.668h2.082v-1.38c0-2.61 1.391-4.324 3.99-4.324 1.518 0 2.576.437 3.427 1.001l-1.196 2.334c-.552-.299-1.207-.54-1.909-.54-.862 0-1.31.529-1.31 1.564v1.345h3.46zm6.528-.299c3.209 0 5.405 2.381 5.417 5.854 0 .345-.023.759-.058 1.012h-7.9c.322 1.61 1.449 2.311 2.863 2.311.966 0 2.013-.39 2.818-1.069l1.76 1.932c-1.266 1.161-2.876 1.69-4.75 1.69-3.416 0-5.785-2.323-5.785-5.83 0-3.508 2.3-5.9 5.635-5.9zm-.023 2.588c-1.414 0-2.242.851-2.507 2.231h4.934c-.276-1.426-1.139-2.231-2.427-2.231zm16.5-1.518l-1.012 2.334c-.886-.437-2.3-.897-3.554-.908-1.138 0-1.713.402-1.713 1.012 0 .644.805.805 1.817.954l.989.15c2.415.368 3.76 1.449 3.76 3.335 0 2.3-1.886 3.784-5.117 3.784-1.518 0-3.508-.288-4.957-1.312l1.185-2.277c.954.633 2.116 1.093 3.795 1.093 1.391 0 2.058-.391 2.058-1.047 0-.54-.563-.839-1.851-1.023l-.909-.127c-2.576-.356-3.852-1.483-3.852-3.38 0-2.289 1.77-3.646 4.703-3.646 1.783 0 3.174.333 4.658 1.058zm11.267 0l-1.012 2.334c-.886-.437-2.3-.897-3.554-.908-1.138 0-1.713.402-1.713 1.012 0 .644.805.805 1.817.954l.989.15c2.415.368 3.76 1.449 3.76 3.335 0 2.3-1.886 3.784-5.117 3.784-1.518 0-3.508-.288-4.957-1.312l1.185-2.277c.954.633 2.116 1.093 3.795 1.093 1.391 0 2.058-.391 2.058-1.047 0-.54-.563-.839-1.851-1.023l-.909-.127c-2.576-.356-3.852-1.483-3.852-3.38 0-2.289 1.77-3.646 4.703-3.646 1.783 0 3.174.333 4.658 1.058zm5.344-.77V159h-3.001v-11.144h3.001zm-1.518-5.578c1.081 0 1.92.851 1.92 1.932s-.839 1.909-1.92 1.909a1.876 1.876 0 0 1-1.909-1.909c0-1.081.828-1.932 1.909-1.932zm9.68 5.278c3.473 0 6.037 2.507 6.037 5.865s-2.564 5.865-6.037 5.865c-3.462 0-6.015-2.507-6.015-5.865s2.553-5.865 6.015-5.865zm0 2.795c-1.69 0-2.956 1.265-2.956 3.07 0 1.806 1.265 3.071 2.956 3.071 1.69 0 2.967-1.265 2.967-3.07 0-1.806-1.277-3.071-2.967-3.071zm14.372-2.795c2.53 0 4.335 1.76 4.335 4.347V159h-3.001v-6.13c0-1.61-.805-2.495-2.174-2.495-1.288 0-2.357.84-2.357 2.518V159h-3.002v-11.144h2.921v1.311c.794-1.184 2.013-1.61 3.278-1.61zm11.462 0c3.163 0 5.175 1.645 5.175 4.876V159h-2.91v-1.127c-.781.805-1.897 1.415-3.415 1.415-2.45 0-3.921-1.461-3.921-3.577 0-2.128 1.76-3.427 4.623-3.427h2.599c-.127-1.334-.92-2.082-2.484-2.082-1.254 0-2.277.506-3.048 1.047l-1.173-2.289c1.196-.885 2.737-1.403 4.554-1.403zm-.425 9.316c.989 0 1.966-.506 2.645-1.289v-1.276h-2.231c-1.426 0-1.944.644-1.944 1.288 0 .655.472 1.276 1.53 1.276zm11.347-14.433V159h-3.001v-16.56h3.001z"/></g></svg>